<?xml version="1.0" encoding="UTF-8" standalone="no"?>
<!DOCTYPE svg PUBLIC "-//W3C//DTD SVG 1.1//EN" "http://www.w3.org/Graphics/SVG/1.1/DTD/svg11.dtd">
<svg width="100%" height="100%" viewBox="0 0 9934 14044" version="1.1" xmlns="http://www.w3.org/2000/svg" xmlns:xlink="http://www.w3.org/1999/xlink" xml:space="preserve" xmlns:serif="http://www.serif.com/" style="fill-rule:evenodd;clip-rule:evenodd;stroke-linecap:round;stroke-linejoin:round;stroke-miterlimit:1.5;">
    <g>
        <rect x="4151.45" y="7760.33" width="2071.68" height="1681.12" style="fill:rgb(235,235,235);stroke:black;stroke-width:108.42px;"/>
        <path d="M9381.6,2837.19C9381.6,2714.6 9282.08,2615.08 9159.49,2615.08L1045.28,2615.08C922.69,2615.08 823.166,2714.6 823.166,2837.19L823.166,7945.76C823.166,8068.35 922.69,8167.87 1045.28,8167.87L9159.49,8167.87C9282.08,8167.87 9381.6,8068.35 9381.6,7945.76L9381.6,2837.19Z" style="fill:rgb(235,235,235);stroke:black;stroke-width:108.42px;"/>
        <rect x="704.298" y="9747.11" width="8813.15" height="2733.95" style="fill:rgb(235,235,235);stroke:black;stroke-width:108.42px;"/>
        <g transform="matrix(1,0,0,1,5688.64,16.981)">
            <rect x="908.071" y="10001.8" width="407.545" height="356.602" style="fill:rgb(235,235,235);stroke:black;stroke-width:108.42px;"/>
        </g>
        <g transform="matrix(1,0,0,1,6333.92,33.962)">
            <rect x="908.071" y="10001.8" width="407.545" height="356.602" style="fill:rgb(235,235,235);stroke:black;stroke-width:108.42px;"/>
        </g>
        <g transform="matrix(1,0,0,1,6962.22,16.981)">
            <rect x="908.071" y="10001.8" width="407.545" height="356.602" style="fill:rgb(235,235,235);stroke:black;stroke-width:108.42px;"/>
        </g>
        <g transform="matrix(1,0,0,1,7590.52,16.981)">
            <rect x="908.071" y="10001.8" width="407.545" height="356.602" style="fill:rgb(235,235,235);stroke:black;stroke-width:108.42px;"/>
        </g>
        <g transform="matrix(1,0,0,1,5043.36,33.962)">
            <rect x="908.071" y="10001.8" width="407.545" height="356.602" style="fill:rgb(235,235,235);stroke:black;stroke-width:108.42px;"/>
        </g>
        <rect x="908.071" y="10001.8" width="407.545" height="356.602" style="fill:rgb(235,235,235);stroke:black;stroke-width:108.42px;"/>
        <g transform="matrix(1,0,0,1,611.317,16.981)">
            <rect x="908.071" y="10001.8" width="407.545" height="356.602" style="fill:rgb(235,235,235);stroke:black;stroke-width:108.42px;"/>
        </g>
        <g transform="matrix(1,0,0,1,1205.65,16.981)">
            <rect x="908.071" y="10001.8" width="407.545" height="356.602" style="fill:rgb(235,235,235);stroke:black;stroke-width:108.42px;"/>
        </g>
        <g transform="matrix(1,0,0,1,1867.91,16.981)">
            <rect x="908.071" y="10001.8" width="407.545" height="356.602" style="fill:rgb(235,235,235);stroke:black;stroke-width:108.42px;"/>
        </g>
        <g transform="matrix(1,0,0,1,2530.17,33.962)">
            <rect x="908.071" y="10001.8" width="407.545" height="356.602" style="fill:rgb(235,235,235);stroke:black;stroke-width:108.42px;"/>
        </g>
        <g transform="matrix(1,0,0,1,3141.49,0)">
            <rect x="908.071" y="10001.8" width="407.545" height="356.602" style="fill:rgb(235,235,235);stroke:black;stroke-width:108.42px;"/>
        </g>
        <g transform="matrix(1,0,0,1,3769.79,16.981)">
            <rect x="908.071" y="10001.8" width="407.545" height="356.602" style="fill:rgb(235,235,235);stroke:black;stroke-width:108.42px;"/>
        </g>
        <g transform="matrix(1,0,0,1,4381.1,16.981)">
            <rect x="908.071" y="10001.8" width="407.545" height="356.602" style="fill:rgb(235,235,235);stroke:black;stroke-width:108.42px;"/>
        </g>
        <g transform="matrix(1,0,0,1,5671.66,594.336)">
            <rect x="908.071" y="10001.8" width="407.545" height="356.602" style="fill:rgb(235,235,235);stroke:black;stroke-width:108.42px;"/>
        </g>
        <g transform="matrix(1,0,0,1,6316.94,611.317)">
            <rect x="908.071" y="10001.8" width="407.545" height="356.602" style="fill:rgb(235,235,235);stroke:black;stroke-width:108.42px;"/>
        </g>
        <g transform="matrix(1,0,0,1,6945.24,594.336)">
            <rect x="908.071" y="10001.8" width="407.545" height="356.602" style="fill:rgb(235,235,235);stroke:black;stroke-width:108.42px;"/>
        </g>
        <g transform="matrix(1,0,0,1,7573.54,594.336)">
            <rect x="908.071" y="10001.8" width="407.545" height="356.602" style="fill:rgb(235,235,235);stroke:black;stroke-width:108.42px;"/>
        </g>
        <g transform="matrix(1,0,0,1,5026.38,611.317)">
            <rect x="908.071" y="10001.8" width="407.545" height="356.602" style="fill:rgb(235,235,235);stroke:black;stroke-width:108.42px;"/>
        </g>
        <g transform="matrix(1,0,0,1,-16.981,577.355)">
            <rect x="908.071" y="10001.8" width="407.545" height="356.602" style="fill:rgb(235,235,235);stroke:black;stroke-width:108.42px;"/>
        </g>
        <g transform="matrix(1,0,0,1,594.336,594.336)">
            <rect x="908.071" y="10001.8" width="407.545" height="356.602" style="fill:rgb(235,235,235);stroke:black;stroke-width:108.42px;"/>
        </g>
        <g transform="matrix(1,0,0,1,1188.67,594.336)">
            <rect x="908.071" y="10001.8" width="407.545" height="356.602" style="fill:rgb(235,235,235);stroke:black;stroke-width:108.42px;"/>
        </g>
        <g transform="matrix(1,0,0,1,1850.93,594.336)">
            <rect x="908.071" y="10001.8" width="407.545" height="356.602" style="fill:rgb(235,235,235);stroke:black;stroke-width:108.42px;"/>
        </g>
        <g transform="matrix(1,0,0,1,2513.19,611.317)">
            <rect x="908.071" y="10001.8" width="407.545" height="356.602" style="fill:rgb(235,235,235);stroke:black;stroke-width:108.42px;"/>
        </g>
        <g transform="matrix(1,0,0,1,3124.51,577.355)">
            <rect x="908.071" y="10001.8" width="407.545" height="356.602" style="fill:rgb(235,235,235);stroke:black;stroke-width:108.42px;"/>
        </g>
        <g transform="matrix(1,0,0,1,3752.81,594.336)">
            <rect x="908.071" y="10001.8" width="407.545" height="356.602" style="fill:rgb(235,235,235);stroke:black;stroke-width:108.42px;"/>
        </g>
        <g transform="matrix(1,0,0,1,4364.12,594.336)">
            <rect x="908.071" y="10001.8" width="407.545" height="356.602" style="fill:rgb(235,235,235);stroke:black;stroke-width:108.42px;"/>
        </g>
        <g transform="matrix(1,0,0,1,5671.66,1137.73)">
            <rect x="908.071" y="10001.8" width="407.545" height="356.602" style="fill:rgb(235,235,235);stroke:black;stroke-width:108.42px;"/>
        </g>
        <g transform="matrix(1,0,0,1,6316.94,1154.71)">
            <rect x="908.071" y="10001.8" width="407.545" height="356.602" style="fill:rgb(235,235,235);stroke:black;stroke-width:108.42px;"/>
        </g>
        <g transform="matrix(1,0,0,1,6945.24,1137.73)">
            <rect x="908.071" y="10001.8" width="407.545" height="356.602" style="fill:rgb(235,235,235);stroke:black;stroke-width:108.42px;"/>
        </g>
        <g transform="matrix(1,0,0,1,7573.54,1137.73)">
            <rect x="908.071" y="10001.8" width="407.545" height="356.602" style="fill:rgb(235,235,235);stroke:black;stroke-width:108.42px;"/>
        </g>
        <g transform="matrix(1,0,0,1,5026.38,1154.71)">
            <rect x="908.071" y="10001.8" width="407.545" height="356.602" style="fill:rgb(235,235,235);stroke:black;stroke-width:108.42px;"/>
        </g>
        <g transform="matrix(1,0,0,1,-16.981,1120.75)">
            <rect x="908.071" y="10001.8" width="407.545" height="356.602" style="fill:rgb(235,235,235);stroke:black;stroke-width:108.42px;"/>
        </g>
        <g transform="matrix(1,0,0,1,594.336,1137.73)">
            <rect x="908.071" y="10001.8" width="407.545" height="356.602" style="fill:rgb(235,235,235);stroke:black;stroke-width:108.42px;"/>
        </g>
        <g transform="matrix(1,0,0,1,1188.67,1137.73)">
            <rect x="908.071" y="10001.8" width="407.545" height="356.602" style="fill:rgb(235,235,235);stroke:black;stroke-width:108.42px;"/>
        </g>
        <g transform="matrix(1,0,0,1,1850.93,1137.73)">
            <rect x="908.071" y="10001.8" width="407.545" height="356.602" style="fill:rgb(235,235,235);stroke:black;stroke-width:108.42px;"/>
        </g>
        <g transform="matrix(1,0,0,1,2513.19,1154.71)">
            <rect x="908.071" y="10001.8" width="407.545" height="356.602" style="fill:rgb(235,235,235);stroke:black;stroke-width:108.42px;"/>
        </g>
        <g transform="matrix(1,0,0,1,3124.51,1120.75)">
            <rect x="908.071" y="10001.8" width="407.545" height="356.602" style="fill:rgb(235,235,235);stroke:black;stroke-width:108.42px;"/>
        </g>
        <g transform="matrix(1,0,0,1,3752.81,1137.73)">
            <rect x="908.071" y="10001.8" width="407.545" height="356.602" style="fill:rgb(235,235,235);stroke:black;stroke-width:108.42px;"/>
        </g>
        <g transform="matrix(1,0,0,1,4364.12,1137.73)">
            <rect x="908.071" y="10001.8" width="407.545" height="356.602" style="fill:rgb(235,235,235);stroke:black;stroke-width:108.42px;"/>
        </g>
        <g transform="matrix(1,0,0,1,5688.64,1732.06)">
            <rect x="908.071" y="10001.8" width="407.545" height="356.602" style="fill:rgb(235,235,235);stroke:black;stroke-width:108.42px;"/>
        </g>
        <g transform="matrix(1,0,0,1,6333.92,1749.05)">
            <rect x="908.071" y="10001.8" width="407.545" height="356.602" style="fill:rgb(235,235,235);stroke:black;stroke-width:108.42px;"/>
        </g>
        <g transform="matrix(1,0,0,1,6962.22,1732.06)">
            <rect x="908.071" y="10001.8" width="407.545" height="356.602" style="fill:rgb(235,235,235);stroke:black;stroke-width:108.42px;"/>
        </g>
        <g transform="matrix(1,0,0,1,7590.52,1732.06)">
            <rect x="908.071" y="10001.8" width="407.545" height="356.602" style="fill:rgb(235,235,235);stroke:black;stroke-width:108.42px;"/>
        </g>
        <g transform="matrix(1,0,0,1,5043.36,1749.05)">
            <rect x="908.071" y="10001.8" width="407.545" height="356.602" style="fill:rgb(235,235,235);stroke:black;stroke-width:108.42px;"/>
        </g>
        <g transform="matrix(1,0,0,1,0,1715.08)">
            <rect x="908.071" y="10001.8" width="407.545" height="356.602" style="fill:rgb(235,235,235);stroke:black;stroke-width:108.42px;"/>
        </g>
        <g transform="matrix(1,0,0,1,611.317,1732.06)">
            <rect x="908.071" y="10001.8" width="407.545" height="356.602" style="fill:rgb(235,235,235);stroke:black;stroke-width:108.42px;"/>
        </g>
        <g transform="matrix(1,0,0,1,1205.65,1732.06)">
            <rect x="908.071" y="10001.8" width="407.545" height="356.602" style="fill:rgb(235,235,235);stroke:black;stroke-width:108.42px;"/>
        </g>
        <g transform="matrix(1,0,0,1,1867.91,1732.06)">
            <rect x="908.071" y="10001.8" width="407.545" height="356.602" style="fill:rgb(235,235,235);stroke:black;stroke-width:108.42px;"/>
        </g>
        <g transform="matrix(1,0,0,1,2530.17,1749.05)">
            <rect x="908.071" y="10001.8" width="407.545" height="356.602" style="fill:rgb(235,235,235);stroke:black;stroke-width:108.42px;"/>
        </g>
        <g transform="matrix(1,0,0,1,3141.49,1715.08)">
            <rect x="908.071" y="10001.8" width="407.545" height="356.602" style="fill:rgb(235,235,235);stroke:black;stroke-width:108.42px;"/>
        </g>
        <g transform="matrix(1,0,0,1,3769.79,1732.06)">
            <rect x="908.071" y="10001.8" width="407.545" height="356.602" style="fill:rgb(235,235,235);stroke:black;stroke-width:108.42px;"/>
        </g>
        <g transform="matrix(1,0,0,1,4381.1,1732.06)">
            <rect x="908.071" y="10001.8" width="407.545" height="356.602" style="fill:rgb(235,235,235);stroke:black;stroke-width:108.42px;"/>
        </g>
    </g>
</svg>
